#N canvas 260 23 873 659 10;
#X msg 95 253 \; pd dsp 1;
#X obj 95 185 loadbang;
#X obj 95 217 delay 100;
#X obj 352 219 vsl 15 128 0 1 0 0 knob1 knob1 empty 0 -9 0 10 -262144
-1 -1 5900 1;
#X obj 415 219 vsl 15 128 0 1 0 0 knob2 knob2 empty 0 -9 0 10 -262144
-1 -1 7200 1;
#X obj 480 220 vsl 15 128 0 1 0 0 knob3 knob3 empty 0 -9 0 10 -262144
-1 -1 0 1;
#X obj 547 218 vsl 15 128 0 1 0 0 knob4 knob4 empty 0 -9 0 10 -262144
-1 -1 0 1;
#X obj 647 220 vsl 15 128 0 1 0 0 exp exp empty 0 -9 0 10 -262144 -1
-1 0 1;
#X obj 331 467 tgl 15 0 aux aux empty 17 7 0 10 -262144 -1 -1 0 1;
#X obj 648 366 tgl 15 0 fs fs empty 17 7 0 10 -262144 -1 -1 0 1;
#N canvas 451 23 922 604 audioIO 0;
#X obj 513 336 dac~;
#X obj 578 102 catch~ outR;
#X obj 484 104 catch~ outL;
#X obj 192 166 adc~;
#X obj 285 245 s~ inR;
#X obj 110 244 s~ inL;
#X obj 487 273 *~;
#X obj 576 275 *~;
#X obj 810 69 r vol;
#X obj 810 122 *;
#X obj 810 95 t f f;
#X obj 810 150 sig~;
#X obj 810 176 lop~ 2;
#X obj 482 179 clip~ -1 1;
#X obj 571 179 clip~ -1 1;
#X text 268 34 Receives and sends audio to patch. Outgoing audio is
run through a compressor to provide some headroom if things get too
loud. Also sends values to the Organelle's OLED VU meter.;
#X obj 742 360 vsl 15 128 0 1 0 0 empty empty empty 0 -9 0 10 -262144
-1 -1 8500 1;
#X obj 742 326 r vol;
#X obj 485 134 *~ 0.25;
#X obj 582 133 *~ 0.25;
#X connect 1 0 19 0;
#X connect 2 0 18 0;
#X connect 3 0 5 0;
#X connect 3 1 4 0;
#X connect 6 0 0 0;
#X connect 7 0 0 1;
#X connect 8 0 10 0;
#X connect 9 0 11 0;
#X connect 10 0 9 0;
#X connect 10 1 9 1;
#X connect 11 0 12 0;
#X connect 12 0 7 1;
#X connect 12 0 6 1;
#X connect 13 0 6 0;
#X connect 14 0 7 0;
#X connect 17 0 16 0;
#X connect 18 0 13 0;
#X connect 19 0 14 0;
#X restore 96 299 pd audioIO;
#N canvas 319 319 1186 851 MIDI 0;
#X text 355 42 MIDI in;
#X text 331 410 MIDI out;
#X obj 312 240 spigot 1;
#X obj 400 196 r midiInGate;
#X obj 312 328 s aux;
#X obj 505 234 spigot 1;
#X obj 593 190 r midiInGate;
#X obj 505 183 ctlin 64 1;
#X obj 505 331 s fs;
#X obj 505 264 >= 64;
#X obj 505 296 change;
#X obj 312 269 >= 64;
#X obj 312 301 change;
#X obj 707 247 spigot 1;
#X obj 795 203 r midiInGate;
#X obj 707 277 t f b;
#X obj 707 315 / 127;
#X obj 707 215 change;
#X obj 707 181 ctlin 26 1;
#X obj 759 310 s expOverride;
#X obj 707 337 s exp;
#X text 666 11 This patch provides the default MIDI behavior. All MIDI
output and input can be suppressed by sending a 0 to midiOutGate and
midiInGate respectively.;
#X obj 321 614 midiout;
#X text 502 349 comment;
#X text 730 271 comment;
#X obj 321 586 iter;
#N canvas 55 23 1342 781 knobs 0;
#X obj 51 162 spigot 1;
#X obj 139 118 r midiInGate;
#X obj 51 192 t f b;
#X obj 51 230 / 127;
#X obj 51 252 s knob1;
#X obj 103 225 s knob1Override;
#X obj 51 123 change;
#X obj 455 173 spigot 1;
#X obj 543 129 r midiInGate;
#X obj 455 203 t f b;
#X obj 455 241 / 127;
#X obj 455 134 change;
#X obj 839 169 spigot 1;
#X obj 927 125 r midiInGate;
#X obj 839 199 t f b;
#X obj 839 237 / 127;
#X obj 839 130 change;
#X obj 1230 156 spigot 1;
#X obj 1318 112 r midiInGate;
#X obj 1230 186 t f b;
#X obj 1230 224 / 127;
#X obj 1230 117 change;
#X obj 455 263 s knob2;
#X obj 839 259 s knob3;
#X obj 1230 246 s knob4;
#X obj 507 236 s knob2Override;
#X obj 892 232 s knob3Override;
#X obj 1282 218 s knob4Override;
#X obj 51 24 ctlin 71;
#X text 46 -7 increasing values are 1 and decreasing are 127;
#X floatatom 72 49 5 0 0 0 - - -;
#X obj 344 8 r knob1;
#X floatatom 392 9 5 0 0 0 - - -;
#X obj 345 33 * 127;
#X floatatom 390 34 5 0 0 0 - - -;
#X obj 51 68 expr if ($f1 > 64 \, $f2 - (128 - $f1) \, $f2 + $f1);
#X floatatom 476 53 5 0 0 0 - - -;
#X floatatom 796 13 5 0 0 0 - - -;
#X obj 749 37 * 127;
#X floatatom 794 38 5 0 0 0 - - -;
#X obj 455 72 expr if ($f1 > 64 \, $f2 - (128 - $f1) \, $f2 + $f1)
;
#X obj 455 28 ctlin 72;
#X obj 748 12 r knob2;
#X floatatom 860 39 5 0 0 0 - - -;
#X floatatom 1180 -1 5 0 0 0 - - -;
#X obj 1133 23 * 127;
#X floatatom 1178 24 5 0 0 0 - - -;
#X obj 839 58 expr if ($f1 > 64 \, $f2 - (128 - $f1) \, $f2 + $f1)
;
#X floatatom 1251 32 5 0 0 0 - - -;
#X floatatom 1571 -8 5 0 0 0 - - -;
#X obj 1524 16 * 127;
#X floatatom 1569 17 5 0 0 0 - - -;
#X obj 1230 51 expr if ($f1 > 64 \, $f2 - (128 - $f1) \, $f2 + $f1)
;
#X obj 1132 -2 r knob3;
#X obj 839 14 ctlin 73;
#X obj 1523 -9 r knob4;
#X obj 1230 7 ctlin 74;
#X obj 52 98 clip 0 127;
#X obj 456 101 clip 0 127;
#X obj 836 100 clip 0 127;
#X obj 1230 86 clip 0 127;
#X obj 59 504 spigot 1;
#X obj 147 460 r midiInGate;
#X obj 59 534 t f b;
#X obj 59 572 / 127;
#X obj 59 465 change;
#X floatatom 80 391 5 0 0 0 - - -;
#X floatatom 400 351 5 0 0 0 - - -;
#X obj 353 375 * 127;
#X floatatom 398 376 5 0 0 0 - - -;
#X obj 59 410 expr if ($f1 > 64 \, $f2 - (128 - $f1) \, $f2 + $f1)
;
#X obj 60 440 clip 0 127;
#X obj 111 567 s volOverride;
#X text 203 567 does this work?;
#X obj 59 594 s vol;
#X obj 59 366 ctlin 79;
#X floatatom 167 612 5 0 0 0 - - -;
#X obj 352 350 r vol;
#X connect 0 0 2 0;
#X connect 1 0 0 1;
#X connect 2 0 3 0;
#X connect 2 1 5 0;
#X connect 3 0 4 0;
#X connect 6 0 0 0;
#X connect 7 0 9 0;
#X connect 8 0 7 1;
#X connect 9 0 10 0;
#X connect 9 1 25 0;
#X connect 10 0 22 0;
#X connect 11 0 7 0;
#X connect 12 0 14 0;
#X connect 13 0 12 1;
#X connect 14 0 15 0;
#X connect 14 1 26 0;
#X connect 15 0 23 0;
#X connect 16 0 12 0;
#X connect 17 0 19 0;
#X connect 18 0 17 1;
#X connect 19 0 20 0;
#X connect 19 1 27 0;
#X connect 20 0 24 0;
#X connect 21 0 17 0;
#X connect 28 0 30 0;
#X connect 28 0 35 0;
#X connect 31 0 32 0;
#X connect 31 0 33 0;
#X connect 33 0 34 0;
#X connect 33 0 35 1;
#X connect 35 0 57 0;
#X connect 38 0 39 0;
#X connect 38 0 40 1;
#X connect 40 0 58 0;
#X connect 41 0 36 0;
#X connect 41 0 40 0;
#X connect 42 0 37 0;
#X connect 42 0 38 0;
#X connect 45 0 46 0;
#X connect 45 0 47 1;
#X connect 47 0 59 0;
#X connect 50 0 51 0;
#X connect 50 0 52 1;
#X connect 52 0 60 0;
#X connect 53 0 44 0;
#X connect 53 0 45 0;
#X connect 54 0 43 0;
#X connect 54 0 47 0;
#X connect 55 0 49 0;
#X connect 55 0 50 0;
#X connect 56 0 48 0;
#X connect 56 0 52 0;
#X connect 57 0 6 0;
#X connect 58 0 11 0;
#X connect 59 0 16 0;
#X connect 60 0 21 0;
#X connect 61 0 63 0;
#X connect 62 0 61 1;
#X connect 63 0 64 0;
#X connect 64 0 74 0;
#X connect 64 0 76 0;
#X connect 65 0 61 0;
#X connect 68 0 69 0;
#X connect 68 0 70 1;
#X connect 70 0 71 0;
#X connect 71 0 65 0;
#X connect 75 0 66 0;
#X connect 75 0 70 0;
#X connect 77 0 67 0;
#X connect 77 0 68 0;
#X restore 110 80 pd knobs;
#N canvas 168 23 1099 851 organellescreenlinestopush 0;
#X obj 51 795 list append 247;
#X obj 49 122 list append 32 32 32 32 32 32 32 32 32 32 32 32 32 32
32 32 32 32 32 32 32 32 32 32 32 32 32 32 32 32 32 32 32 32 32 32 32
32 32 32 32 32 32 32 32 32 32 32 32 32 32 32 32 32 32 32 32 32 32 32
32 32 32 32 32 32 32 32;
#X obj 49 66 r screenLine1;
#X obj 431 60 r screenLine2;
#X obj 49 184 list split 34;
#X obj 430 114 list append 32 32 32 32 32 32 32 32 32 32 32 32 32 32
32 32 32 32 32 32 32 32 32 32 32 32 32 32 32 32 32 32 32 32 32 32 32
32 32 32 32 32 32 32 32 32 32 32 32 32 32 32 32 32 32 32 32 32 32 32
32 32 32 32 32 32 32 32;
#X obj 430 176 list split 34;
#X obj 51 824 outlet;
#X obj 88 403 list append 32 32 32 32 32 32 32 32 32 32 32 32 32 32
32 32 32 32 32 32 32 32 32 32 32 32 32 32 32 32 32 32 32 32 32 32 32
32 32 32 32 32 32 32 32 32 32 32 32 32 32 32 32 32 32 32 32 32 32 32
32 32 32 32 32 32 32 32;
#X obj 88 465 list split 34;
#X obj 469 395 list append 32 32 32 32 32 32 32 32 32 32 32 32 32 32
32 32 32 32 32 32 32 32 32 32 32 32 32 32 32 32 32 32 32 32 32 32 32
32 32 32 32 32 32 32 32 32 32 32 32 32 32 32 32 32 32 32 32 32 32 32
32 32 32 32 32 32 32 32;
#X obj 469 457 list split 34;
#X obj 87 339 r screenLine3;
#X obj 470 338 r screenLine4;
#X obj 147 597 r screenLine5;
#X obj 194 665 list prepend 240 71 127 21 25 0 69 0;
#X obj 147 650 list append 32 32 32 32 32 32 32 32 32 32 32 32 32 32
32 32 32 32 32 32 32 32 32 32 32 32 32 32 32 32 32 32 32 32 32 32 32
32 32 32 32 32 32 32 32 32 32 32 32 32 32 32 32 32 32 32 32 32 32 32
32 32 32 32 32 32 32 32;
#X obj 147 712 list split 34;
#X obj 88 376 moocow/any2bytes 128 -1;
#X obj 470 369 moocow/any2bytes 128 -1;
#X obj 147 623 moocow/any2bytes 128 -1;
#X obj 49 95 moocow/any2bytes 128 -1;
#X obj 431 88 moocow/any2bytes 128 -1;
#X obj 455 544 list prepend 240 71 127 21 25 0 34 34;
#X obj 427 256 list prepend 240 71 127 21 24 0 34 34;
#X obj 671 599 r vol;
#X msg 671 624 Volume: \$1;
#X obj 718 698 list prepend 240 71 127 21 25 0 69 0;
#X obj 671 683 list append 32 32 32 32 32 32 32 32 32 32 32 32 32 32
32 32 32 32 32 32 32 32 32 32 32 32 32 32 32 32 32 32 32 32 32 32 32
32 32 32 32 32 32 32 32 32 32 32 32 32 32 32 32 32 32 32 32 32 32 32
32 32 32 32 32 32 32 32;
#X obj 671 745 list split 34;
#X obj 671 656 moocow/any2bytes 128 -1;
#X obj 672 772 list prepend 240 71 127 21 26 0 34 34;
#X obj 147 739 list prepend 240 71 127 21 26 0 35 0;
#X obj 89 550 list prepend 240 71 127 21 25 0 35 0;
#X obj 50 269 list prepend 240 71 127 21 24 0 35 0;
#X connect 0 0 7 0;
#X connect 1 0 4 0;
#X connect 2 0 21 0;
#X connect 3 0 22 0;
#X connect 4 0 34 0;
#X connect 5 0 6 0;
#X connect 6 0 24 0;
#X connect 8 0 9 0;
#X connect 9 0 33 0;
#X connect 10 0 11 0;
#X connect 11 0 23 0;
#X connect 12 0 18 0;
#X connect 13 0 19 0;
#X connect 14 0 20 0;
#X connect 16 0 17 0;
#X connect 17 0 32 0;
#X connect 18 0 8 0;
#X connect 19 0 10 0;
#X connect 20 0 16 0;
#X connect 21 0 1 0;
#X connect 22 0 5 0;
#X connect 23 0 0 0;
#X connect 24 0 0 0;
#X connect 25 0 26 0;
#X connect 26 0 30 0;
#X connect 28 0 29 0;
#X connect 29 0 31 0;
#X connect 30 0 28 0;
#X connect 31 0 0 0;
#X connect 32 0 0 0;
#X connect 33 0 0 0;
#X connect 34 0 0 0;
#X restore 321 552 pd organellescreenlinestopush;
#N canvas 155 23 873 617 midiouttests 0;
#X obj 108 219 outlet;
#X obj 95 81 tgl 15 0 empty empty empty 17 7 0 10 -262144 -1 -1 0 1
;
#X msg 95 105 176 \, 44 \, \$1;
#X obj 267 152 iter;
#X msg 267 78 240 71 127 21 25 0 69 0 102 114 101 113 58 32 57 48 32
32 32 32 32 32 32 32 32 32 32 32 32 32 32 32 32 32 32 32 32 32 32 32
32 32 32 32 32 32 32 32 32 32 32 32 32 32 32 32 32 32 32 32 32 32 32
32 32 32 32 32 32 32 32 32 32 32 32 32 247;
#X floatatom 51 399 5 0 0 0 - - -;
#X msg 51 422 freq \$1;
#X obj 47 457 s screenLine4;
#X connect 1 0 2 0;
#X connect 2 0 0 0;
#X connect 3 0 0 0;
#X connect 4 0 3 0;
#X connect 5 0 6 0;
#X connect 6 0 7 0;
#X restore 269 513 pd midiouttests;
#X text 669 67 MIDI functionality has been modified to work with the
Original Ableton Push. Mostly vanilla objects except for expr and any2bytes
(moocow library).;
#X obj 312 181 ctlin 3 1;
#X obj 369 358 ctlout 3 1;
#X obj 377 270 r aux;
#X obj 376 295 * 127;
#X floatatom 400 330 5 0 0 0 - - -;
#X obj 36 536 ctlin 85 1;
#X obj 105 535 ctlin 86 1;
#X msg 34 585 \; pd dsp 1;
#X obj 36 560 select 127;
#X obj 108 564 select 127;
#X msg 107 605 \; pd dsp 0;
#X obj 36 639 loadbang;
#X msg 38 672 127;
#X obj 36 705 ctlout 85 1;
#X obj 46 726 ctlout 86 1;
#X obj 177 609 s vol;
#X msg 174 584 0;
#N canvas 64 23 1123 762 matrixbuttons 0;
#X obj 83 45 notein;
#X obj 79 203 pack;
#X obj 79 232 spigot 1;
#X obj 126 168 r midiInGate;
#X obj 79 265 s notes;
#X obj 42 101 > 35;
#X obj 69 171 i;
#X obj 41 128 select 1;
#X text 92 101 filters out the knob touches;
#X obj 337 224 send;
#X obj 337 110 sprintf btn%i %i;
#X obj 337 139 zl rev;
#X obj 62 385 r btn92;
#X obj 63 584 noteout;
#X msg 62 451 92 \$1;
#X text 82 351 output;
#X text 118 17 input;
#X obj 114 384 r btn93;
#X msg 114 450 93 \$1;
#X obj 337 166 unpack f s;
#X obj 62 413 > 0;
#X obj 114 413 > 0;
#X obj 62 476 s mbtns;
#X obj 114 476 s mbtns;
#X obj 63 533 r mbtns;
#X obj 116 583 s notes;
#X obj 169 412 > 0;
#X obj 221 412 > 0;
#X obj 169 475 s mbtns;
#X obj 221 475 s mbtns;
#X obj 169 384 r btn94;
#X obj 221 383 r btn95;
#X msg 169 450 94 \$1;
#X msg 221 449 95 \$1;
#X obj 280 411 > 0;
#X obj 332 411 > 0;
#X obj 280 474 s mbtns;
#X obj 332 474 s mbtns;
#X obj 387 410 > 0;
#X obj 439 410 > 0;
#X obj 387 473 s mbtns;
#X obj 439 473 s mbtns;
#X obj 280 383 r btn96;
#X obj 332 382 r btn97;
#X obj 387 382 r btn98;
#X obj 439 381 r btn99;
#X msg 280 449 96 \$1;
#X msg 332 448 97 \$1;
#X msg 387 448 98 \$1;
#X msg 439 447 99 \$1;
#X connect 0 0 6 1;
#X connect 0 0 5 0;
#X connect 0 0 10 0;
#X connect 0 1 1 1;
#X connect 0 1 10 1;
#X connect 1 0 2 0;
#X connect 2 0 4 0;
#X connect 3 0 2 1;
#X connect 5 0 7 0;
#X connect 6 0 1 0;
#X connect 7 0 6 0;
#X connect 10 0 11 0;
#X connect 11 0 19 0;
#X connect 12 0 20 0;
#X connect 14 0 22 0;
#X connect 17 0 21 0;
#X connect 18 0 23 0;
#X connect 19 0 9 0;
#X connect 19 1 9 1;
#X connect 20 0 14 0;
#X connect 21 0 18 0;
#X connect 24 0 13 0;
#X connect 24 0 25 0;
#X connect 26 0 32 0;
#X connect 27 0 33 0;
#X connect 30 0 26 0;
#X connect 31 0 27 0;
#X connect 32 0 28 0;
#X connect 33 0 29 0;
#X connect 34 0 46 0;
#X connect 35 0 47 0;
#X connect 38 0 48 0;
#X connect 39 0 49 0;
#X connect 42 0 34 0;
#X connect 43 0 35 0;
#X connect 44 0 38 0;
#X connect 45 0 39 0;
#X connect 46 0 36 0;
#X connect 47 0 37 0;
#X connect 48 0 40 0;
#X connect 49 0 41 0;
#X restore 110 115 pd matrixbuttons;
#N canvas 652 561 450 300 clearpushdisplay 0;
#X obj 62 193 outlet;
#X msg 61 83 240 \, 71 \, 127 \, 21 \, 28 \, 0 \, 0 \, 247;
#X msg 71 102 240 \, 71 \, 127 \, 21 \, 29 \, 0 \, 0 \, 247;
#X msg 81 122 240 \, 71 \, 127 \, 21 \, 30 \, 0 \, 0 \, 247;
#X msg 92 143 240 \, 71 \, 127 \, 21 \, 31 \, 0 \, 0 \, 247;
#X obj 103 19 inlet;
#X obj 103 47 bng 15 250 50 0 empty empty empty 17 7 0 10 -262144 -1
-1;
#X connect 1 0 0 0;
#X connect 2 0 0 0;
#X connect 3 0 0 0;
#X connect 4 0 0 0;
#X connect 5 0 6 0;
#X connect 6 0 1 0;
#X connect 6 0 2 0;
#X connect 6 0 3 0;
#X connect 6 0 4 0;
#X restore 394 507 pd clearpushdisplay;
#X obj 394 484 bng 15 250 50 0 empty empty empty 17 7 0 10 -262144
-1 -1;
#X obj 394 460 r clearpushdisplay;
#X connect 2 0 11 0;
#X connect 3 0 2 1;
#X connect 5 0 9 0;
#X connect 6 0 5 1;
#X connect 9 0 10 0;
#X connect 10 0 8 0;
#X connect 11 0 12 0;
#X connect 12 0 4 0;
#X connect 13 0 15 0;
#X connect 14 0 13 1;
#X connect 15 0 16 0;
#X connect 15 1 19 0;
#X connect 16 0 20 0;
#X connect 17 0 13 0;
#X connect 25 0 22 0;
#X connect 27 0 25 0;
#X connect 28 0 22 0;
#X connect 30 0 2 0;
#X connect 32 0 33 0;
#X connect 33 0 34 0;
#X connect 33 0 31 0;
#X connect 35 0 38 0;
#X connect 36 0 39 0;
#X connect 38 0 37 0;
#X connect 39 0 40 0;
#X connect 39 0 46 0;
#X connect 41 0 42 0;
#X connect 42 0 43 0;
#X connect 42 0 44 0;
#X connect 46 0 45 0;
#X connect 48 0 25 0;
#X connect 49 0 48 0;
#X connect 50 0 49 0;
#X restore 97 326 pd MIDI;
#X text 327 442 aux;
#X obj 731 219 vsl 15 128 0 1 0 0 vol vol empty 0 -9 0 10 -262144 -1
-1 8500 1;
#X obj 340 141 bng 15 250 50 0 send-all-vals empty empty 17 7 0 10
-262144 -1 -1;
#X obj 330 420 cnv 17 17 17 empty empty empty 20 12 0 14 -33289 -262144
0;
#N canvas 0 22 692 573 desktop-stuff 0;
#X obj 24 95 s knob1;
#X obj 43 49 r send-all-vals;
#X obj 84 96 s knob2;
#X obj 44 124 s knob3;
#X obj 99 122 s knob4;
#X obj 116 162 s exp;
#X obj 197 96 r screenLine1;
#X obj 286 95 r screenLine2;
#X obj 373 95 r screenLine3;
#X obj 462 94 r screenLine4;
#X obj 549 94 r screenLine5;
#X obj 317 157 print;
#X obj 67 240 r led;
#X msg 69 429 \; led-canvas color \$1 0;
#X obj 68 335 sel 0 1 2 3 4 5 6 7;
#X msg 68 365 22;
#X msg 111 365 13;
#X msg 155 366 15;
#X msg 198 364 16;
#X msg 250 367 17;
#X msg 306 367 18;
#X msg 351 376 19;
#X obj 67 284 % 8;
#X msg 396 374 0;
#X obj 202 257 loadbang;
#X msg 202 279 0;
#X connect 1 0 0 0;
#X connect 1 0 2 0;
#X connect 1 0 3 0;
#X connect 1 0 4 0;
#X connect 1 0 5 0;
#X connect 6 0 11 0;
#X connect 7 0 11 0;
#X connect 8 0 11 0;
#X connect 9 0 11 0;
#X connect 10 0 11 0;
#X connect 12 0 22 0;
#X connect 14 0 15 0;
#X connect 14 1 16 0;
#X connect 14 2 17 0;
#X connect 14 3 18 0;
#X connect 14 4 19 0;
#X connect 14 5 20 0;
#X connect 14 6 21 0;
#X connect 14 7 23 0;
#X connect 15 0 13 0;
#X connect 16 0 13 0;
#X connect 17 0 13 0;
#X connect 18 0 13 0;
#X connect 19 0 13 0;
#X connect 20 0 13 0;
#X connect 21 0 13 0;
#X connect 22 0 14 0;
#X connect 23 0 13 0;
#X connect 24 0 25 0;
#X connect 25 0 14 0;
#X restore 96 352 pd desktop-stuff;
#X obj 331 421 cnv 15 15 15 empty led-canvas empty 20 12 0 14 -1 -262144
0;
#X text 365 140 Hit this after opening a patch to send the inital slider
values to the patch;
#X text 339 195 knob 1;
#X text 404 194 knob 2;
#X text 467 193 knob 3;
#X text 532 193 knob 4;
#X text 624 182 expression;
#X text 641 196 pedal;
#X text 718 192 volume;
#X text 671 365 foot switch;
#X obj 382 419 tgl 15 0 btn92 btn92 empty 17 7 0 10 -262144 -1 -1 0
124;
#X obj 401 419 tgl 15 0 btn93 btn93 empty 17 7 0 10 -262144 -1 -1 0
127;
#X obj 420 419 tgl 15 0 btn94 btn94 empty 17 7 0 10 -262144 -1 -1 0
1;
#X obj 440 419 tgl 15 0 btn95 btn95 empty 17 7 0 10 -262144 -1 -1 0
1;
#X obj 462 419 tgl 15 0 btn96 btn96 empty 17 7 0 10 -262144 -1 -1 0
1;
#X obj 481 419 tgl 15 0 btn97 btn97 empty 17 7 0 10 -262144 -1 -1 0
1;
#X obj 500 419 tgl 15 0 btn98 btn98 empty 17 7 0 10 -262144 -1 -1 0
58;
#X obj 520 419 tgl 15 0 btn99 btn99 empty 17 7 0 10 -262144 -1 -1 0
75;
#X obj 382 439 tgl 15 0 empty empty empty 17 7 0 10 -262144 -1 -1 0
1;
#X obj 401 439 tgl 15 0 empty empty empty 17 7 0 10 -262144 -1 -1 0
1;
#X obj 420 439 tgl 15 0 empty empty empty 17 7 0 10 -262144 -1 -1 0
1;
#X obj 440 439 tgl 15 0 empty empty empty 17 7 0 10 -262144 -1 -1 0
1;
#X obj 462 439 tgl 15 0 empty empty empty 17 7 0 10 -262144 -1 -1 0
1;
#X obj 481 439 tgl 15 0 empty empty empty 17 7 0 10 -262144 -1 -1 0
1;
#X obj 500 439 tgl 15 0 empty empty empty 17 7 0 10 -262144 -1 -1 0
1;
#X obj 520 439 tgl 15 0 empty empty empty 17 7 0 10 -262144 -1 -1 0
1;
#X obj 382 458 tgl 15 0 empty empty empty 17 7 0 10 -262144 -1 -1 0
1;
#X obj 401 458 tgl 15 0 empty empty empty 17 7 0 10 -262144 -1 -1 0
1;
#X obj 420 458 tgl 15 0 empty empty empty 17 7 0 10 -262144 -1 -1 0
1;
#X obj 440 458 tgl 15 0 empty empty empty 17 7 0 10 -262144 -1 -1 0
1;
#X obj 462 458 tgl 15 0 empty empty empty 17 7 0 10 -262144 -1 -1 0
1;
#X obj 481 458 tgl 15 0 empty empty empty 17 7 0 10 -262144 -1 -1 0
1;
#X obj 500 458 tgl 15 0 empty empty empty 17 7 0 10 -262144 -1 -1 0
1;
#X obj 520 458 tgl 15 0 empty empty empty 17 7 0 10 -262144 -1 -1 0
1;
#X obj 382 477 tgl 15 0 empty empty empty 17 7 0 10 -262144 -1 -1 0
1;
#X obj 401 477 tgl 15 0 empty empty empty 17 7 0 10 -262144 -1 -1 0
1;
#X obj 420 477 tgl 15 0 empty empty empty 17 7 0 10 -262144 -1 -1 0
1;
#X obj 440 477 tgl 15 0 empty empty empty 17 7 0 10 -262144 -1 -1 0
1;
#X obj 462 477 tgl 15 0 empty empty empty 17 7 0 10 -262144 -1 -1 0
1;
#X obj 481 477 tgl 15 0 empty empty empty 17 7 0 10 -262144 -1 -1 0
1;
#X obj 500 477 tgl 15 0 empty empty empty 17 7 0 10 -262144 -1 -1 0
1;
#X obj 520 477 tgl 15 0 empty empty empty 17 7 0 10 -262144 -1 -1 0
1;
#X obj 382 498 tgl 15 0 empty empty empty 17 7 0 10 -262144 -1 -1 0
1;
#X obj 401 498 tgl 15 0 empty empty empty 17 7 0 10 -262144 -1 -1 0
1;
#X obj 420 498 tgl 15 0 empty empty empty 17 7 0 10 -262144 -1 -1 0
1;
#X obj 440 498 tgl 15 0 empty empty empty 17 7 0 10 -262144 -1 -1 0
1;
#X obj 462 498 tgl 15 0 empty empty empty 17 7 0 10 -262144 -1 -1 0
1;
#X obj 481 498 tgl 15 0 empty empty empty 17 7 0 10 -262144 -1 -1 0
1;
#X obj 500 498 tgl 15 0 empty empty empty 17 7 0 10 -262144 -1 -1 0
1;
#X obj 520 498 tgl 15 0 empty empty empty 17 7 0 10 -262144 -1 -1 0
1;
#X obj 382 518 tgl 15 0 empty empty empty 17 7 0 10 -262144 -1 -1 0
1;
#X obj 401 518 tgl 15 0 empty empty empty 17 7 0 10 -262144 -1 -1 0
1;
#X obj 420 518 tgl 15 0 empty empty empty 17 7 0 10 -262144 -1 -1 0
1;
#X obj 440 518 tgl 15 0 empty empty empty 17 7 0 10 -262144 -1 -1 0
1;
#X obj 462 518 tgl 15 0 empty empty empty 17 7 0 10 -262144 -1 -1 0
1;
#X obj 481 518 tgl 15 0 empty empty empty 17 7 0 10 -262144 -1 -1 0
1;
#X obj 500 518 tgl 15 0 empty empty empty 17 7 0 10 -262144 -1 -1 0
1;
#X obj 520 518 tgl 15 0 empty empty empty 17 7 0 10 -262144 -1 -1 0
1;
#X obj 382 537 tgl 15 0 empty empty empty 17 7 0 10 -262144 -1 -1 0
1;
#X obj 401 537 tgl 15 0 empty empty empty 17 7 0 10 -262144 -1 -1 0
1;
#X obj 420 537 tgl 15 0 empty empty empty 17 7 0 10 -262144 -1 -1 0
1;
#X obj 440 537 tgl 15 0 empty empty empty 17 7 0 10 -262144 -1 -1 0
1;
#X obj 462 537 tgl 15 0 empty empty empty 17 7 0 10 -262144 -1 -1 0
1;
#X obj 481 537 tgl 15 0 empty empty empty 17 7 0 10 -262144 -1 -1 0
1;
#X obj 500 537 tgl 15 0 empty empty empty 17 7 0 10 -262144 -1 -1 0
1;
#X obj 520 537 tgl 15 0 empty empty empty 17 7 0 10 -262144 -1 -1 0
1;
#X obj 382 556 tgl 15 0 empty empty empty 17 7 0 10 -262144 -1 -1 0
1;
#X obj 401 556 tgl 15 0 empty empty empty 17 7 0 10 -262144 -1 -1 0
1;
#X obj 420 556 tgl 15 0 empty empty empty 17 7 0 10 -262144 -1 -1 0
1;
#X obj 440 556 tgl 15 0 empty empty empty 17 7 0 10 -262144 -1 -1 0
1;
#X obj 462 556 tgl 15 0 empty empty empty 17 7 0 10 -262144 -1 -1 0
1;
#X obj 481 556 tgl 15 0 empty empty empty 17 7 0 10 -262144 -1 -1 0
1;
#X obj 500 556 tgl 15 0 empty empty empty 17 7 0 10 -262144 -1 -1 0
1;
#X obj 520 556 tgl 15 0 empty empty empty 17 7 0 10 -262144 -1 -1 0
1;
#X obj 163 252 s clearpushdisplay;
#X text 55 615;
#X text 545 417 only this first row is mapped so far;
#X text 57 13 Mother Patch. This patch is the bridge between the hardware
and Pd. Without it open the Organelle does not work. You can simulate
knob input using the sliders.;
#X connect 1 0 2 0;
#X connect 2 0 0 0;
#X connect 2 0 91 0;
