#N canvas 432 23 928 561 10;
#X obj 393 450 tgl 15 0 key2 key2 empty 17 7 0 10 -33289 -262144 -1
0 1;
#X msg 95 253 \; pd dsp 1;
#X obj 95 185 loadbang;
#X obj 95 217 delay 100;
#X obj 352 219 vsl 15 128 0 1 0 0 knob1 knob1 empty 0 -9 0 10 -262144
-1 -1 12700 1;
#X obj 415 219 vsl 15 128 0 1 0 0 knob2 knob2 empty 0 -9 0 10 -262144
-1 -1 10700 1;
#X obj 480 220 vsl 15 128 0 1 0 0 knob3 knob3 empty 0 -9 0 10 -262144
-1 -1 6000 1;
#X obj 547 218 vsl 15 128 0 1 0 0 knob4 knob4 empty 0 -9 0 10 -262144
-1 -1 8800 1;
#X obj 647 220 vsl 15 128 0 1 0 0 exp exp empty 0 -9 0 10 -262144 -1
-1 4900 1;
#X obj 330 469 tgl 15 0 aux aux empty 17 7 0 10 -262144 -1 -1 1 1;
#X obj 648 366 tgl 15 0 fs fs empty 17 7 0 10 -262144 -1 -1 0 1;
#N canvas 127 248 922 604 audioIO 0;
#X obj 513 336 dac~;
#X obj 578 102 catch~ outR;
#X obj 484 104 catch~ outL;
#X obj 192 166 adc~;
#X obj 285 245 s~ inR;
#X obj 110 244 s~ inL;
#X obj 487 273 *~;
#X obj 576 275 *~;
#X obj 810 69 r vol;
#X obj 810 122 *;
#X obj 810 95 t f f;
#X obj 810 150 sig~;
#X obj 810 176 lop~ 2;
#X obj 482 179 clip~ -1 1;
#X obj 571 179 clip~ -1 1;
#X text 268 34 Receives and sends audio to patch. Outgoing audio is
run through a compressor to provide some headroom if things get too
loud. Also sends values to the Organelle's OLED VU meter.;
#X obj 742 360 vsl 15 128 0 1 0 0 empty empty empty 0 -9 0 10 -262144
-1 -1 12700 1;
#X obj 742 326 r vol;
#X obj 485 134 *~ 0.25;
#X obj 582 133 *~ 0.25;
#X connect 1 0 19 0;
#X connect 2 0 18 0;
#X connect 3 0 5 0;
#X connect 3 1 4 0;
#X connect 6 0 0 0;
#X connect 7 0 0 1;
#X connect 8 0 10 0;
#X connect 9 0 11 0;
#X connect 10 0 9 0;
#X connect 10 1 9 1;
#X connect 11 0 12 0;
#X connect 12 0 7 1;
#X connect 12 0 6 1;
#X connect 13 0 6 0;
#X connect 14 0 7 0;
#X connect 17 0 16 0;
#X connect 18 0 13 0;
#X connect 19 0 14 0;
#X restore 96 299 pd audioIO;
#N canvas 61 23 1186 851 MIDI 0;
#X obj 108 136 notein;
#X obj 104 294 pack;
#X obj 104 323 spigot 1;
#X obj 151 259 r midiInGate;
#X obj 104 356 s notes;
#X text 355 42 MIDI in;
#X text 342 449 MIDI out;
#X obj 312 240 spigot 1;
#X obj 400 196 r midiInGate;
#X obj 312 181 ctlin 25 1;
#X obj 312 328 s aux;
#X obj 505 234 spigot 1;
#X obj 593 190 r midiInGate;
#X obj 505 183 ctlin 64 1;
#X obj 505 331 s fs;
#X obj 505 264 >= 64;
#X obj 505 296 change;
#X obj 312 269 >= 64;
#X obj 312 301 change;
#X obj 707 247 spigot 1;
#X obj 795 203 r midiInGate;
#X obj 707 277 t f b;
#X obj 707 315 / 127;
#X obj 707 208 change;
#X obj 707 181 ctlin 26 1;
#X obj 759 310 s expOverride;
#X obj 707 337 s exp;
#X text 666 11 This patch provides the default MIDI behavior. All MIDI
output and input can be suppressed by sending a 0 to midiOutGate and
midiInGate respectively.;
#X obj 321 614 midiout;
#X text 510 335;
#X text 730 271;
#X obj 67 192 > 35;
#X obj 94 262 i;
#X obj 66 219 select 1;
#X text 117 192 filters out the knob touches;
#X obj 321 586 iter;
#N canvas 379 34 1031 589 knobs 0;
#X obj 51 162 spigot 1;
#X obj 139 118 r midiInGate;
#X obj 51 192 t f b;
#X obj 51 230 / 127;
#X obj 51 252 s knob1;
#X obj 103 225 s knob1Override;
#X obj 51 123 change;
#X obj 455 173 spigot 1;
#X obj 543 129 r midiInGate;
#X obj 455 203 t f b;
#X obj 455 241 / 127;
#X obj 455 134 change;
#X obj 839 169 spigot 1;
#X obj 927 125 r midiInGate;
#X obj 839 199 t f b;
#X obj 839 237 / 127;
#X obj 839 130 change;
#X obj 1230 156 spigot 1;
#X obj 1318 112 r midiInGate;
#X obj 1230 186 t f b;
#X obj 1230 224 / 127;
#X obj 1230 117 change;
#X obj 455 263 s knob2;
#X obj 839 259 s knob3;
#X obj 1230 246 s knob4;
#X obj 507 236 s knob2Override;
#X obj 892 232 s knob3Override;
#X obj 1282 218 s knob4Override;
#X obj 51 24 ctlin 71;
#X text 46 -7 increasing values are 1 and decreasing are 127;
#X floatatom 72 49 5 0 0 0 - - -;
#X obj 344 8 r knob1;
#X floatatom 392 9 5 0 0 0 - - -;
#X obj 345 33 * 127;
#X floatatom 390 34 5 0 0 0 - - -;
#X obj 51 68 expr if ($f1 > 64 \, $f2 - (128 - $f1) \, $f2 + $f1);
#X floatatom 476 53 5 0 0 0 - - -;
#X floatatom 796 13 5 0 0 0 - - -;
#X obj 749 37 * 127;
#X floatatom 794 38 5 0 0 0 - - -;
#X obj 455 72 expr if ($f1 > 64 \, $f2 - (128 - $f1) \, $f2 + $f1)
;
#X obj 455 28 ctlin 72;
#X obj 748 12 r knob2;
#X floatatom 860 39 5 0 0 0 - - -;
#X floatatom 1180 -1 5 0 0 0 - - -;
#X obj 1133 23 * 127;
#X floatatom 1178 24 5 0 0 0 - - -;
#X obj 839 58 expr if ($f1 > 64 \, $f2 - (128 - $f1) \, $f2 + $f1)
;
#X floatatom 1251 32 5 0 0 0 - - -;
#X floatatom 1571 -8 5 0 0 0 - - -;
#X obj 1524 16 * 127;
#X floatatom 1569 17 5 0 0 0 - - -;
#X obj 1230 51 expr if ($f1 > 64 \, $f2 - (128 - $f1) \, $f2 + $f1)
;
#X obj 1132 -2 r knob3;
#X obj 839 14 ctlin 73;
#X obj 1523 -9 r knob4;
#X obj 1230 7 ctlin 74;
#X connect 0 0 2 0;
#X connect 1 0 0 1;
#X connect 2 0 3 0;
#X connect 2 1 5 0;
#X connect 3 0 4 0;
#X connect 6 0 0 0;
#X connect 7 0 9 0;
#X connect 8 0 7 1;
#X connect 9 0 10 0;
#X connect 9 1 25 0;
#X connect 10 0 22 0;
#X connect 11 0 7 0;
#X connect 12 0 14 0;
#X connect 13 0 12 1;
#X connect 14 0 15 0;
#X connect 14 1 26 0;
#X connect 15 0 23 0;
#X connect 16 0 12 0;
#X connect 17 0 19 0;
#X connect 18 0 17 1;
#X connect 19 0 20 0;
#X connect 19 1 27 0;
#X connect 20 0 24 0;
#X connect 21 0 17 0;
#X connect 28 0 30 0;
#X connect 28 0 35 0;
#X connect 31 0 32 0;
#X connect 31 0 33 0;
#X connect 33 0 34 0;
#X connect 33 0 35 1;
#X connect 35 0 6 0;
#X connect 38 0 39 0;
#X connect 38 0 40 1;
#X connect 40 0 11 0;
#X connect 41 0 36 0;
#X connect 41 0 40 0;
#X connect 42 0 37 0;
#X connect 42 0 38 0;
#X connect 45 0 46 0;
#X connect 45 0 47 1;
#X connect 47 0 16 0;
#X connect 50 0 51 0;
#X connect 50 0 52 1;
#X connect 52 0 21 0;
#X connect 53 0 44 0;
#X connect 53 0 45 0;
#X connect 54 0 43 0;
#X connect 54 0 47 0;
#X connect 55 0 49 0;
#X connect 55 0 50 0;
#X connect 56 0 48 0;
#X connect 56 0 52 0;
#X restore 86 83 pd knobs;
#N canvas 491 23 949 851 organellescreenlinestopush 0;
#X obj 51 795 list append 247;
#X obj 50 269 list prepend 240 71 127 21 24 0 69 0;
#X obj 49 122 list append 32 32 32 32 32 32 32 32 32 32 32 32 32 32
32 32 32 32 32 32 32 32 32 32 32 32 32 32 32 32 32 32 32 32 32 32 32
32 32 32 32 32 32 32 32 32 32 32 32 32 32 32 32 32 32 32 32 32 32 32
32 32 32 32 32 32 32 32;
#X obj 49 66 r screenLine1;
#X obj 431 60 r screenLine2;
#X msg 426 232 32 32 32 32 32 32 32 32 32 32 32 32 32 32 32 32 32 32
32 32 32 32 32 32 32 32 32 32 32 32 32 32 32 32 32 32 32 32 32 32 32
32 32 32 32 32 32 32 32 32 32 32 32 32 32 32 32 32 32 32 32 32 32 32
32 32 32 32;
#X obj 49 95 moocow/any2bytes;
#X obj 431 88 moocow/any2bytes;
#X obj 49 184 list split 34;
#X obj 49 214 list append;
#X obj 430 114 list append 32 32 32 32 32 32 32 32 32 32 32 32 32 32
32 32 32 32 32 32 32 32 32 32 32 32 32 32 32 32 32 32 32 32 32 32 32
32 32 32 32 32 32 32 32 32 32 32 32 32 32 32 32 32 32 32 32 32 32 32
32 32 32 32 32 32 32 32;
#X obj 430 176 list split 34;
#X obj 49 242 list split 68;
#X obj 425 206 loadbang;
#X text 114 43 combine line 1 and 2 to first line of push;
#X obj 51 824 outlet;
#X obj 88 403 list append 32 32 32 32 32 32 32 32 32 32 32 32 32 32
32 32 32 32 32 32 32 32 32 32 32 32 32 32 32 32 32 32 32 32 32 32 32
32 32 32 32 32 32 32 32 32 32 32 32 32 32 32 32 32 32 32 32 32 32 32
32 32 32 32 32 32 32 32;
#X msg 465 513 32 32 32 32 32 32 32 32 32 32 32 32 32 32 32 32 32 32
32 32 32 32 32 32 32 32 32 32 32 32 32 32 32 32 32 32 32 32 32 32 32
32 32 32 32 32 32 32 32 32 32 32 32 32 32 32 32 32 32 32 32 32 32 32
32 32 32 32;
#X obj 88 376 moocow/any2bytes;
#X obj 470 369 moocow/any2bytes;
#X obj 88 465 list split 34;
#X obj 88 495 list append;
#X obj 469 395 list append 32 32 32 32 32 32 32 32 32 32 32 32 32 32
32 32 32 32 32 32 32 32 32 32 32 32 32 32 32 32 32 32 32 32 32 32 32
32 32 32 32 32 32 32 32 32 32 32 32 32 32 32 32 32 32 32 32 32 32 32
32 32 32 32 32 32 32 32;
#X obj 469 457 list split 34;
#X obj 88 523 list split 68;
#X obj 464 487 loadbang;
#X obj 89 550 list prepend 240 71 127 21 25 0 69 0;
#X obj 87 339 r screenLine3;
#X obj 470 338 r screenLine4;
#X obj 147 597 r screenLine5;
#X obj 194 665 list prepend 240 71 127 21 25 0 69 0;
#X obj 147 739 list prepend 240 71 127 21 26 0 69 0;
#X obj 147 650 list append 32 32 32 32 32 32 32 32 32 32 32 32 32 32
32 32 32 32 32 32 32 32 32 32 32 32 32 32 32 32 32 32 32 32 32 32 32
32 32 32 32 32 32 32 32 32 32 32 32 32 32 32 32 32 32 32 32 32 32 32
32 32 32 32 32 32 32 32;
#X obj 147 712 list split 68;
#X obj 147 623 moocow/any2bytes;
#X text 473 616;
#X connect 0 0 15 0;
#X connect 1 0 0 0;
#X connect 2 0 8 0;
#X connect 3 0 6 0;
#X connect 4 0 7 0;
#X connect 5 0 9 1;
#X connect 6 0 2 0;
#X connect 7 0 10 0;
#X connect 8 0 9 0;
#X connect 9 0 12 0;
#X connect 10 0 11 0;
#X connect 11 0 9 1;
#X connect 12 0 1 0;
#X connect 13 0 5 0;
#X connect 16 0 20 0;
#X connect 17 0 21 1;
#X connect 18 0 16 0;
#X connect 19 0 22 0;
#X connect 20 0 21 0;
#X connect 21 0 24 0;
#X connect 22 0 23 0;
#X connect 23 0 21 1;
#X connect 24 0 26 0;
#X connect 25 0 17 0;
#X connect 26 0 0 0;
#X connect 27 0 18 0;
#X connect 28 0 19 0;
#X connect 29 0 34 0;
#X connect 31 0 0 0;
#X connect 32 0 33 0;
#X connect 33 0 31 0;
#X connect 34 0 32 0;
#X restore 321 552 pd organellescreenlinestopush;
#N canvas 155 23 873 617 midiouttests 0;
#X obj 108 219 outlet;
#X obj 95 81 tgl 15 0 empty empty empty 17 7 0 10 -262144 -1 -1 0 1
;
#X msg 95 105 176 \, 44 \, \$1;
#X obj 267 152 iter;
#X msg 267 78 240 71 127 21 25 0 69 0 102 114 101 113 58 32 57 48 32
32 32 32 32 32 32 32 32 32 32 32 32 32 32 32 32 32 32 32 32 32 32 32
32 32 32 32 32 32 32 32 32 32 32 32 32 32 32 32 32 32 32 32 32 32 32
32 32 32 32 32 32 32 32 32 32 32 32 32 247;
#X floatatom 51 399 5 0 0 0 - - -;
#X msg 51 422 freq \$1;
#X obj 47 457 s screenLine1;
#X connect 1 0 2 0;
#X connect 2 0 0 0;
#X connect 3 0 0 0;
#X connect 4 0 3 0;
#X connect 5 0 6 0;
#X connect 6 0 7 0;
#X restore 164 551 pd midiouttests;
#X text 669 67 MIDI functionality has been modified to work with the
Original Ableton Push. Mostly vanilla objects except for expr and any2bytes
(moocow library).;
#X connect 0 0 32 1;
#X connect 0 0 31 0;
#X connect 0 1 1 1;
#X connect 1 0 2 0;
#X connect 2 0 4 0;
#X connect 3 0 2 1;
#X connect 7 0 17 0;
#X connect 8 0 7 1;
#X connect 9 0 7 0;
#X connect 11 0 15 0;
#X connect 12 0 11 1;
#X connect 13 0 11 0;
#X connect 15 0 16 0;
#X connect 16 0 14 0;
#X connect 17 0 18 0;
#X connect 18 0 10 0;
#X connect 19 0 21 0;
#X connect 20 0 19 1;
#X connect 21 0 22 0;
#X connect 21 1 25 0;
#X connect 22 0 26 0;
#X connect 23 0 19 0;
#X connect 24 0 23 0;
#X connect 31 0 33 0;
#X connect 32 0 1 0;
#X connect 33 0 32 0;
#X connect 35 0 28 0;
#X connect 37 0 35 0;
#X connect 38 0 28 0;
#X restore 97 326 pd MIDI;
#X obj 406 471 tgl 15 0 key3 key3 empty 17 7 0 10 -262144 -1 -1 0 1
;
#X obj 419 449 tgl 15 0 key4 key4 empty 17 7 0 10 -33289 -262144 -1
0 1;
#X obj 431 471 tgl 15 0 key5 key5 empty 17 7 0 10 -262144 -1 -1 0 1
;
#X obj 456 471 tgl 15 0 key6 key6 empty 17 7 0 10 -262144 -1 -1 0 1
;
#X obj 467 450 tgl 15 0 key7 key7 empty 17 7 0 10 -33289 -262144 -1
0 1;
#X obj 481 471 tgl 15 0 key8 key8 empty 17 7 0 10 -262144 -1 -1 0 1
;
#X obj 492 450 tgl 15 0 key9 key9 empty 17 7 0 10 -33289 -262144 -1
0 1;
#X obj 506 471 tgl 15 0 key10 key10 empty 17 7 0 10 -262144 -1 -1 0
1;
#X obj 518 450 tgl 15 0 key11 key11 empty 17 7 0 10 -33289 -262144
-1 0 1;
#X obj 531 471 tgl 15 0 key12 key12 empty 17 7 0 10 -262144 -33289
-1 0 1;
#X obj 574 471 tgl 15 0 key13 key13 empty 17 7 0 10 -262144 -1 -1 0
1;
#X obj 585 450 tgl 15 0 key14 key14 empty 17 7 0 10 -33289 -262144
-1 0 1;
#X obj 598 471 tgl 15 0 key15 key15 empty 17 7 0 10 -262144 -1 -1 0
1;
#X obj 611 449 tgl 15 0 key16 key16 empty 17 7 0 10 -33289 -262144
-1 0 1;
#X obj 623 471 tgl 15 0 key17 key17 empty 17 7 0 10 -262144 -1 -1 0
1;
#X obj 648 471 tgl 15 0 key18 key18 empty 17 7 0 10 -262144 -1 -1 0
1;
#X obj 659 450 tgl 15 0 key19 key19 empty 17 7 0 10 -33289 -262144
-1 0 1;
#X obj 673 471 tgl 15 0 key20 key20 empty 17 7 0 10 -262144 -1 -1 0
1;
#X obj 684 450 tgl 15 0 key21 key21 empty 17 7 0 10 -33289 -262144
-1 0 1;
#X obj 698 471 tgl 15 0 key22 key22 empty 17 7 0 10 -262144 -1 -1 0
1;
#X obj 710 450 tgl 15 0 key23 key23 empty 17 7 0 10 -33289 -262144
-1 0 1;
#X obj 723 471 tgl 15 0 key24 key24 empty 17 7 0 10 -262144 -33289
-1 0 1;
#X obj 382 471 tgl 15 0 key1 key1 empty 17 7 0 10 -262144 -1 -1 0 1
;
#X text 327 442 aux;
#X obj 731 219 vsl 15 128 0 1 0 0 vol vol empty 0 -9 0 10 -262144 -1
-1 12700 1;
#X obj 340 141 bng 15 250 50 0 send-all-vals empty empty 17 7 0 10
-262144 -1 -1;
#X obj 330 420 cnv 17 17 17 empty empty empty 20 12 0 14 -33289 -262144
0;
#N canvas 147 23 1184 799 keyboard-keys 0;
#X obj 202 35 key;
#X msg 202 78 1;
#X obj 257 35 keyup;
#X msg 257 77 0;
#X obj 221 163 sel 1 0;
#X obj 222 246 s notes;
#X obj 271 307 key;
#X msg 271 350 1;
#X obj 326 307 keyup;
#X msg 326 349 0;
#X obj 290 435 sel 1 0;
#X obj 291 518 s notes;
#X obj 392 306 key;
#X msg 392 349 1;
#X obj 447 306 keyup;
#X msg 447 348 0;
#X obj 411 434 sel 1 0;
#X obj 412 517 s notes;
#X obj 518 305 key;
#X msg 518 348 1;
#X obj 573 305 keyup;
#X msg 573 347 0;
#X obj 537 433 sel 1 0;
#X obj 538 516 s notes;
#X obj 643 305 key;
#X msg 643 348 1;
#X obj 698 305 keyup;
#X msg 698 347 0;
#X obj 662 433 sel 1 0;
#X obj 663 516 s notes;
#X obj 769 304 key;
#X msg 769 347 1;
#X obj 824 304 keyup;
#X msg 824 346 0;
#X obj 788 432 sel 1 0;
#X obj 789 515 s notes;
#X obj 892 304 key;
#X msg 892 347 1;
#X obj 947 304 keyup;
#X msg 947 346 0;
#X obj 911 432 sel 1 0;
#X obj 912 515 s notes;
#X obj 149 308 key;
#X msg 149 351 1;
#X obj 204 308 keyup;
#X msg 204 350 0;
#X obj 168 436 sel 1 0;
#X obj 175 514 s notes;
#X obj 335 34 key;
#X msg 335 77 1;
#X obj 390 34 keyup;
#X msg 390 76 0;
#X obj 354 162 sel 1 0;
#X obj 355 245 s notes;
#X obj 584 33 key;
#X msg 584 76 1;
#X obj 639 33 keyup;
#X msg 639 75 0;
#X obj 603 161 sel 1 0;
#X obj 604 244 s notes;
#X obj 707 33 key;
#X msg 707 76 1;
#X obj 762 33 keyup;
#X msg 762 75 0;
#X obj 726 161 sel 1 0;
#X obj 727 244 s notes;
#X obj 830 33 key;
#X msg 830 76 1;
#X obj 885 33 keyup;
#X msg 885 75 0;
#X obj 849 161 sel 1 0;
#X obj 850 244 s notes;
#X obj 161 918 key;
#X msg 161 961 1;
#X obj 216 918 keyup;
#X msg 216 960 0;
#X obj 181 992 s key1;
#X obj 180 1024 r key1;
#X obj 180 1046 sel 1 0;
#X msg 165 1083 60 100;
#X msg 221 1083 60 0;
#X obj 181 1129 s notes;
#X obj 161 940 sel 122;
#X obj 216 940 sel 122;
#X text 160 887 z;
#X obj 287 917 key;
#X msg 287 960 1;
#X obj 342 917 keyup;
#X msg 342 959 0;
#X obj 306 1045 sel 1 0;
#X obj 307 1128 s notes;
#X text 286 886 x;
#X obj 287 939 sel 120;
#X obj 342 939 sel 120;
#X msg 291 1082 62 100;
#X msg 347 1082 62 0;
#X obj 408 916 key;
#X msg 408 959 1;
#X obj 463 916 keyup;
#X msg 463 958 0;
#X obj 427 1044 sel 1 0;
#X obj 428 1127 s notes;
#X obj 534 915 key;
#X msg 534 958 1;
#X obj 589 915 keyup;
#X msg 589 957 0;
#X obj 553 1043 sel 1 0;
#X obj 554 1126 s notes;
#X obj 659 915 key;
#X msg 659 958 1;
#X obj 714 915 keyup;
#X msg 714 957 0;
#X obj 678 1043 sel 1 0;
#X obj 679 1126 s notes;
#X obj 785 914 key;
#X msg 785 957 1;
#X obj 840 914 keyup;
#X msg 840 956 0;
#X obj 804 1042 sel 1 0;
#X obj 805 1125 s notes;
#X obj 908 914 key;
#X msg 908 957 1;
#X obj 963 914 keyup;
#X msg 963 956 0;
#X obj 927 1042 sel 1 0;
#X obj 928 1125 s notes;
#X obj 228 644 key;
#X msg 228 687 1;
#X obj 283 644 keyup;
#X msg 283 686 0;
#X obj 247 772 sel 1 0;
#X obj 248 855 s notes;
#X obj 351 644 key;
#X msg 351 687 1;
#X obj 406 644 keyup;
#X msg 406 686 0;
#X obj 370 772 sel 1 0;
#X obj 371 855 s notes;
#X obj 600 643 key;
#X msg 600 686 1;
#X obj 655 643 keyup;
#X msg 655 685 0;
#X obj 619 771 sel 1 0;
#X obj 620 854 s notes;
#X obj 723 643 key;
#X msg 723 686 1;
#X obj 778 643 keyup;
#X msg 778 685 0;
#X obj 742 771 sel 1 0;
#X obj 743 854 s notes;
#X obj 846 643 key;
#X msg 846 686 1;
#X obj 901 643 keyup;
#X msg 901 685 0;
#X obj 865 771 sel 1 0;
#X obj 866 854 s notes;
#X obj 148 331 sel 113;
#X obj 204 330 sel 113;
#X msg 153 472 72 100;
#X msg 209 473 72 0;
#X text 148 277 q;
#X text 201 4 2;
#X obj 202 57 sel 50;
#X obj 257 57 sel 50;
#X msg 206 200 73 100;
#X msg 262 200 73 0;
#X msg 275 473 74 100;
#X msg 331 472 74 0;
#X msg 340 199 75 100;
#X msg 395 199 75 0;
#X msg 396 471 76 100;
#X msg 452 471 76 0;
#X msg 522 470 77 100;
#X msg 578 470 77 0;
#X msg 588 198 78 100;
#X msg 644 198 78 0;
#X msg 647 470 79 100;
#X msg 703 470 79 0;
#X msg 711 198 80 100;
#X msg 767 199 80 0;
#X msg 773 469 81 100;
#X msg 829 469 81 0;
#X msg 834 198 82 100;
#X msg 890 199 82 0;
#X msg 896 469 83 100;
#X msg 952 469 83 0;
#X obj 271 329 sel 119;
#X obj 326 329 sel 119;
#X text 270 276 w;
#X text 334 3 3;
#X obj 335 56 sel 51;
#X obj 390 56 sel 51;
#X obj 392 328 sel 101;
#X obj 447 328 sel 101;
#X obj 518 327 sel 114;
#X obj 573 327 sel 114;
#X text 518 274 r;
#X text 391 275 e;
#X text 642 274 t;
#X text 768 273 y;
#X text 891 273 u;
#X text 829 2 7;
#X text 706 2 6;
#X text 583 2 5;
#X obj 643 327 sel 116;
#X obj 698 327 sel 116;
#X obj 584 55 sel 53;
#X obj 639 55 sel 53;
#X obj 707 55 sel 54;
#X obj 762 55 sel 54;
#X obj 769 326 sel 121;
#X obj 824 326 sel 121;
#X obj 830 55 sel 55;
#X obj 885 55 sel 55;
#X obj 892 326 sel 117;
#X obj 947 326 sel 117;
#X msg 412 1081 64 100;
#X msg 468 1081 64 0;
#X msg 538 1080 65 100;
#X msg 594 1080 65 0;
#X msg 663 1080 67 100;
#X msg 719 1080 67 0;
#X msg 789 1079 69 100;
#X msg 845 1079 69 0;
#X msg 912 1079 71 100;
#X msg 968 1079 71 0;
#X obj 408 938 sel 99;
#X obj 463 938 sel 99;
#X obj 534 937 sel 118;
#X obj 589 937 sel 118;
#X obj 659 937 sel 98;
#X obj 714 937 sel 98;
#X obj 785 936 sel 110;
#X obj 840 936 sel 110;
#X obj 908 936 sel 109;
#X obj 963 936 sel 109;
#X obj 901 665 sel 106;
#X obj 846 665 sel 106;
#X obj 778 665 sel 104;
#X obj 723 665 sel 104;
#X obj 655 665 sel 103;
#X obj 601 665 sel 103;
#X obj 228 666 sel 115;
#X obj 283 666 sel 115;
#X obj 351 665 sel 100;
#X obj 406 666 sel 100;
#X text 227 613 s;
#X text 350 613 d;
#X text 599 612 g;
#X text 722 612 h;
#X text 847 612 j;
#X text 407 885 c;
#X text 533 884 v;
#X text 658 884 b;
#X text 784 882 n;
#X text 907 883 m;
#X msg 232 809 61 100;
#X msg 288 809 61 0;
#X msg 355 809 63 100;
#X msg 411 809 63 0;
#X msg 604 808 66 100;
#X msg 660 808 66 0;
#X msg 727 808 68 100;
#X msg 784 808 68 0;
#X msg 850 808 70 100;
#X msg 906 808 70 0;
#X obj 248 718 s key2;
#X obj 247 750 r key2;
#X obj 307 991 s key3;
#X obj 306 1023 r key3;
#X obj 372 718 s key4;
#X obj 370 750 r key4;
#X obj 428 990 s key5;
#X obj 427 1022 r key5;
#X obj 554 989 s key6;
#X obj 553 1021 r key6;
#X obj 620 717 s key7;
#X obj 619 749 r key7;
#X obj 679 989 s key8;
#X obj 678 1021 r key8;
#X obj 743 717 s key9;
#X obj 742 749 r key9;
#X obj 805 988 s key10;
#X obj 804 1020 r key10;
#X obj 866 717 s key11;
#X obj 865 749 r key11;
#X obj 929 988 s key12;
#X obj 927 1020 r key12;
#X obj 168 414 r key13;
#X obj 169 382 s key13;
#X obj 222 109 s key14;
#X obj 221 141 r key14;
#X obj 291 381 s key15;
#X obj 290 413 r key15;
#X obj 355 108 s key16;
#X obj 354 139 r key16;
#X obj 413 380 s key17;
#X obj 411 412 r key17;
#X obj 540 379 s key18;
#X obj 537 411 r key18;
#X obj 604 106 s key19;
#X obj 603 139 r key19;
#X obj 663 379 s key20;
#X obj 662 411 r key20;
#X obj 727 107 s key21;
#X obj 726 134 r key21;
#X obj 790 378 s key22;
#X obj 788 410 r key22;
#X obj 850 107 s key23;
#X obj 849 138 r key23;
#X obj 912 378 s key24;
#X obj 911 407 r key24;
#X text -79 475 1;
#X obj -45 516 key;
#X obj 24 518 keyup;
#X obj -55 556 sel 49;
#X obj 26 559 sel 49;
#X obj -60 592 t b b;
#X msg -68 660 1;
#X obj -38 734 change;
#X msg -22 620 stop;
#X msg 13 693 0;
#X obj 18 661 delay 250;
#X obj -30 768 s aux;
#X connect 0 0 162 0;
#X connect 1 0 290 0;
#X connect 2 0 163 0;
#X connect 3 0 290 0;
#X connect 4 0 164 0;
#X connect 4 1 165 0;
#X connect 6 0 186 0;
#X connect 7 0 292 0;
#X connect 8 0 187 0;
#X connect 9 0 292 0;
#X connect 10 0 166 0;
#X connect 10 1 167 0;
#X connect 12 0 192 0;
#X connect 13 0 296 0;
#X connect 14 0 193 0;
#X connect 15 0 296 0;
#X connect 16 0 170 0;
#X connect 16 1 171 0;
#X connect 18 0 194 0;
#X connect 19 0 298 0;
#X connect 20 0 195 0;
#X connect 21 0 298 0;
#X connect 22 0 172 0;
#X connect 22 1 173 0;
#X connect 24 0 204 0;
#X connect 25 0 302 0;
#X connect 26 0 205 0;
#X connect 27 0 302 0;
#X connect 28 0 176 0;
#X connect 28 1 177 0;
#X connect 30 0 210 0;
#X connect 31 0 306 0;
#X connect 32 0 211 0;
#X connect 33 0 306 0;
#X connect 34 0 180 0;
#X connect 34 1 181 0;
#X connect 36 0 214 0;
#X connect 37 0 310 0;
#X connect 38 0 215 0;
#X connect 39 0 310 0;
#X connect 40 0 184 0;
#X connect 40 1 185 0;
#X connect 42 0 156 0;
#X connect 43 0 289 0;
#X connect 44 0 157 0;
#X connect 45 0 289 0;
#X connect 46 0 158 0;
#X connect 46 1 159 0;
#X connect 48 0 190 0;
#X connect 49 0 294 0;
#X connect 50 0 191 0;
#X connect 51 0 294 0;
#X connect 52 0 168 0;
#X connect 52 1 169 0;
#X connect 54 0 206 0;
#X connect 55 0 300 0;
#X connect 56 0 207 0;
#X connect 57 0 300 0;
#X connect 58 0 174 0;
#X connect 58 1 175 0;
#X connect 60 0 208 0;
#X connect 61 0 304 0;
#X connect 62 0 209 0;
#X connect 63 0 304 0;
#X connect 64 0 178 0;
#X connect 64 1 179 0;
#X connect 66 0 212 0;
#X connect 67 0 308 0;
#X connect 68 0 213 0;
#X connect 69 0 308 0;
#X connect 70 0 182 0;
#X connect 70 1 183 0;
#X connect 72 0 82 0;
#X connect 73 0 76 0;
#X connect 74 0 83 0;
#X connect 75 0 76 0;
#X connect 77 0 78 0;
#X connect 78 0 79 0;
#X connect 78 1 80 0;
#X connect 79 0 81 0;
#X connect 80 0 81 0;
#X connect 82 0 73 0;
#X connect 83 0 75 0;
#X connect 85 0 92 0;
#X connect 86 0 268 0;
#X connect 87 0 93 0;
#X connect 88 0 268 0;
#X connect 89 0 94 0;
#X connect 89 1 95 0;
#X connect 92 0 86 0;
#X connect 93 0 88 0;
#X connect 94 0 90 0;
#X connect 95 0 90 0;
#X connect 96 0 226 0;
#X connect 97 0 272 0;
#X connect 98 0 227 0;
#X connect 99 0 272 0;
#X connect 100 0 216 0;
#X connect 100 1 217 0;
#X connect 102 0 228 0;
#X connect 103 0 274 0;
#X connect 104 0 229 0;
#X connect 105 0 274 0;
#X connect 106 0 218 0;
#X connect 106 1 219 0;
#X connect 108 0 230 0;
#X connect 109 0 278 0;
#X connect 110 0 231 0;
#X connect 111 0 278 0;
#X connect 112 0 220 0;
#X connect 112 1 221 0;
#X connect 114 0 232 0;
#X connect 115 0 282 0;
#X connect 116 0 233 0;
#X connect 117 0 282 0;
#X connect 118 0 222 0;
#X connect 118 1 223 0;
#X connect 120 0 234 0;
#X connect 121 0 286 0;
#X connect 122 0 235 0;
#X connect 123 0 286 0;
#X connect 124 0 224 0;
#X connect 124 1 225 0;
#X connect 126 0 242 0;
#X connect 127 0 266 0;
#X connect 128 0 243 0;
#X connect 129 0 266 0;
#X connect 130 0 256 0;
#X connect 130 1 257 0;
#X connect 132 0 244 0;
#X connect 133 0 270 0;
#X connect 134 0 245 0;
#X connect 135 0 270 0;
#X connect 136 0 258 0;
#X connect 136 1 259 0;
#X connect 138 0 241 0;
#X connect 139 0 276 0;
#X connect 140 0 240 0;
#X connect 141 0 276 0;
#X connect 142 0 260 0;
#X connect 142 1 261 0;
#X connect 144 0 239 0;
#X connect 145 0 280 0;
#X connect 146 0 238 0;
#X connect 147 0 280 0;
#X connect 148 0 262 0;
#X connect 148 1 263 0;
#X connect 150 0 237 0;
#X connect 151 0 284 0;
#X connect 152 0 236 0;
#X connect 153 0 284 0;
#X connect 154 0 264 0;
#X connect 154 1 265 0;
#X connect 156 0 43 0;
#X connect 157 0 45 0;
#X connect 158 0 47 0;
#X connect 159 0 47 0;
#X connect 162 0 1 0;
#X connect 163 0 3 0;
#X connect 164 0 5 0;
#X connect 165 0 5 0;
#X connect 166 0 11 0;
#X connect 167 0 11 0;
#X connect 168 0 53 0;
#X connect 169 0 53 0;
#X connect 170 0 17 0;
#X connect 171 0 17 0;
#X connect 172 0 23 0;
#X connect 173 0 23 0;
#X connect 174 0 59 0;
#X connect 175 0 59 0;
#X connect 176 0 29 0;
#X connect 177 0 29 0;
#X connect 178 0 65 0;
#X connect 179 0 65 0;
#X connect 180 0 35 0;
#X connect 181 0 35 0;
#X connect 182 0 71 0;
#X connect 183 0 71 0;
#X connect 184 0 41 0;
#X connect 185 0 41 0;
#X connect 186 0 7 0;
#X connect 187 0 9 0;
#X connect 190 0 49 0;
#X connect 191 0 51 0;
#X connect 192 0 13 0;
#X connect 193 0 15 0;
#X connect 194 0 19 0;
#X connect 195 0 21 0;
#X connect 204 0 25 0;
#X connect 205 0 27 0;
#X connect 206 0 55 0;
#X connect 207 0 57 0;
#X connect 208 0 61 0;
#X connect 209 0 63 0;
#X connect 210 0 31 0;
#X connect 211 0 33 0;
#X connect 212 0 67 0;
#X connect 213 0 69 0;
#X connect 214 0 37 0;
#X connect 215 0 39 0;
#X connect 216 0 101 0;
#X connect 217 0 101 0;
#X connect 218 0 107 0;
#X connect 219 0 107 0;
#X connect 220 0 113 0;
#X connect 221 0 113 0;
#X connect 222 0 119 0;
#X connect 223 0 119 0;
#X connect 224 0 125 0;
#X connect 225 0 125 0;
#X connect 226 0 97 0;
#X connect 227 0 99 0;
#X connect 228 0 103 0;
#X connect 229 0 105 0;
#X connect 230 0 109 0;
#X connect 231 0 111 0;
#X connect 232 0 115 0;
#X connect 233 0 117 0;
#X connect 234 0 121 0;
#X connect 235 0 123 0;
#X connect 236 0 153 0;
#X connect 237 0 151 0;
#X connect 238 0 147 0;
#X connect 239 0 145 0;
#X connect 240 0 141 0;
#X connect 241 0 139 0;
#X connect 242 0 127 0;
#X connect 243 0 129 0;
#X connect 244 0 133 0;
#X connect 245 0 135 0;
#X connect 256 0 131 0;
#X connect 257 0 131 0;
#X connect 258 0 137 0;
#X connect 259 0 137 0;
#X connect 260 0 143 0;
#X connect 261 0 143 0;
#X connect 262 0 149 0;
#X connect 263 0 149 0;
#X connect 264 0 155 0;
#X connect 265 0 155 0;
#X connect 267 0 130 0;
#X connect 269 0 89 0;
#X connect 271 0 136 0;
#X connect 273 0 100 0;
#X connect 275 0 106 0;
#X connect 277 0 142 0;
#X connect 279 0 112 0;
#X connect 281 0 148 0;
#X connect 283 0 118 0;
#X connect 285 0 154 0;
#X connect 287 0 124 0;
#X connect 288 0 46 0;
#X connect 291 0 4 0;
#X connect 293 0 10 0;
#X connect 295 0 52 0;
#X connect 297 0 16 0;
#X connect 299 0 22 0;
#X connect 301 0 58 0;
#X connect 303 0 28 0;
#X connect 305 0 64 0;
#X connect 307 0 34 0;
#X connect 309 0 70 0;
#X connect 311 0 40 0;
#X connect 313 0 315 0;
#X connect 314 0 316 0;
#X connect 315 0 317 0;
#X connect 316 0 322 0;
#X connect 317 0 318 0;
#X connect 317 1 320 0;
#X connect 318 0 319 0;
#X connect 319 0 323 0;
#X connect 320 0 322 0;
#X connect 321 0 319 0;
#X connect 322 0 321 0;
#X restore 97 354 pd keyboard-keys;
#N canvas 0 22 692 573 desktop-stuff 0;
#X obj 24 95 s knob1;
#X obj 43 49 r send-all-vals;
#X obj 84 96 s knob2;
#X obj 44 124 s knob3;
#X obj 99 122 s knob4;
#X obj 116 162 s exp;
#X obj 197 96 r screenLine1;
#X obj 286 95 r screenLine2;
#X obj 373 95 r screenLine3;
#X obj 462 94 r screenLine4;
#X obj 549 94 r screenLine5;
#X obj 317 157 print;
#X obj 67 240 r led;
#X msg 69 429 \; led-canvas color \$1 0;
#X obj 68 335 sel 0 1 2 3 4 5 6 7;
#X msg 68 365 22;
#X msg 111 365 13;
#X msg 155 366 15;
#X msg 198 364 16;
#X msg 250 367 17;
#X msg 306 367 18;
#X msg 351 376 19;
#X obj 67 284 % 8;
#X msg 396 374 0;
#X obj 202 257 loadbang;
#X msg 202 279 0;
#X connect 1 0 0 0;
#X connect 1 0 2 0;
#X connect 1 0 3 0;
#X connect 1 0 4 0;
#X connect 1 0 5 0;
#X connect 6 0 11 0;
#X connect 7 0 11 0;
#X connect 8 0 11 0;
#X connect 9 0 11 0;
#X connect 10 0 11 0;
#X connect 12 0 22 0;
#X connect 14 0 15 0;
#X connect 14 1 16 0;
#X connect 14 2 17 0;
#X connect 14 3 18 0;
#X connect 14 4 19 0;
#X connect 14 5 20 0;
#X connect 14 6 21 0;
#X connect 14 7 23 0;
#X connect 15 0 13 0;
#X connect 16 0 13 0;
#X connect 17 0 13 0;
#X connect 18 0 13 0;
#X connect 19 0 13 0;
#X connect 20 0 13 0;
#X connect 21 0 13 0;
#X connect 22 0 14 0;
#X connect 23 0 13 0;
#X connect 24 0 25 0;
#X connect 25 0 14 0;
#X restore 96 383 pd desktop-stuff;
#X obj 331 421 cnv 15 15 15 empty led-canvas empty 20 12 0 14 -258699
-262144 0;
#X text 365 140 Hit this after opening a patch to send the inital slider
values to the patch;
#X text 339 195 knob 1;
#X text 404 194 knob 2;
#X text 467 193 knob 3;
#X text 532 193 knob 4;
#X text 624 182 expression;
#X text 641 196 pedal;
#X text 57 13 Mother Patch. This patch is the bridge between the hardware
and Pd. Without it open the Organelle does not work. In this desktop
version the computer keyboard sends note messages. The two octaves
are on two rows \, the upper starting with 'Q' and the lower starting
with 'Z'. The Aux button is '1'. You can simulate knob input using
the sliders.;
#X text 718 192 volume;
#X text 492 14 MIDI is recieved by this patch so a MIDI controller
will function the same as it would when connected to the Organelle.
;
#X text 492 62 For playing notes on the computer keyboard: you might
want to disable key repeats in your OS system prefs so notes don't
fire over and over when a key is held down.;
#X text 671 365 foot switch;
#X text 119 482 todo select knob;
#X connect 2 0 3 0;
#X connect 3 0 1 0;
